<svg width="10" height="16" viewBox="0 0 10 16" fill="none" xmlns="http://www.w3.org/2000/svg">
<path d="M4.0338 0.876829L4.0338 12.4521L1.49075 9.90904C1.13999 9.55827 0.613839 9.55827 0.263074 9.90904C-0.0876916 10.2598 -0.0876915 10.786 0.263074 11.1367L4.29688 15.1705C4.64764 15.5213 5.17379 15.5213 5.52455 15.1705L9.55836 11.1367C9.90912 10.786 9.90912 10.2598 9.55836 9.90904C9.20759 9.55827 8.68144 9.55827 8.33068 9.90904L5.78763 12.4521L5.78763 0.876829C5.78763 0.438372 5.43686 -8.4161e-05 4.91071 -8.4138e-05C4.38457 -8.4115e-05 4.0338 0.438372 4.0338 0.876829Z" fill="#458FF6"/>
</svg>
